<mxfile host="app.diagrams.net" modified="2023-10-10T22:13:54.599Z" agent="Mozilla/5.0 (Macintosh; Intel Mac OS X 10.15; rv:109.0) Gecko/20100101 Firefox/118.0" version="22.0.4" etag="3G1dNbknXXPTBOHniEQn" type="github">
  <diagram name="Page-1" id="Vyb3po8KO1C4xEBnEacZ">
    <mxGraphModel>
      <root>
        <mxCell id="0" />
        <mxCell id="1" parent="0" />
      </root>
    </mxGraphModel>
  </diagram>
</mxfile>
